<?xml version="1.0" encoding="utf-8"?>
<!-- Generator: Adobe Illustrator 16.0.0, SVG Export Plug-In . SVG Version: 6.00 Build 0)  -->
<!DOCTYPE svg PUBLIC "-//W3C//DTD SVG 1.1//EN" "http://www.w3.org/Graphics/SVG/1.1/DTD/svg11.dtd">
<svg version="1.1" id="Layer_1" xmlns="http://www.w3.org/2000/svg" xmlns:xlink="http://www.w3.org/1999/xlink" x="0px" y="0px"
	 width="130px" height="25px" viewBox="0 0 130 25" enable-background="new 0 0 130 25" xml:space="preserve">
<g>
	<path fill="#F44336" d="M109.371,9.835c0-2.357,0-4.714,0.002-7.072c0-0.192-0.002-0.384,0.01-0.576
		c0.017-0.258,0.143-0.428,0.412-0.472c0.021-0.003,0.047-0.012,0.07-0.013c1.465-0.054,2.932-0.043,4.398-0.005
		c0.332,0.008,0.489,0.226,0.521,0.538c0.018,0.166,0.011,0.336,0.011,0.504c0,4.403,0,8.804,0,13.208c0,0.311,0,0.621,0.067,0.932
		c0.205,0.922,0.942,1.23,1.699,0.66c0.787-0.594,1.537-1.236,2.295-1.863c0.67-0.553,0.894-0.559,1.555,0.006
		c0.621,0.53,1.295,0.998,1.893,1.561c0.188,0.178,0.42,0.32,0.652,0.442c0.572,0.293,1.102,0.077,1.334-0.528
		c0.101-0.264,0.111-0.536,0.111-0.814c-0.001-4.486-0.001-8.972-0.001-13.46c0-0.155-0.003-0.311,0.001-0.468
		c0.012-0.537,0.175-0.72,0.711-0.735c0.553-0.016,1.105-0.004,1.659-0.004c0.818,0,1.638-0.004,2.454,0.002
		c0.6,0.005,0.791,0.175,0.788,0.772c-0.019,3.007,0.041,6.013-0.037,9.02c-0.045,1.753-0.032,3.512-0.013,5.269
		c0.018,1.629-0.369,3.128-1.438,4.382c-1.378,1.616-3.124,2.462-5.287,2.376c-0.984-0.041-1.932-0.215-2.801-0.697
		c-0.568-0.315-1.092-0.283-1.672,0.006c-1.787,0.89-3.662,0.938-5.477,0.195c-2.114-0.869-3.439-2.484-3.881-4.759
		c-0.082-0.421-0.086-0.862-0.088-1.295c-0.01-2.368-0.006-4.737-0.006-7.107C109.334,9.835,109.354,9.835,109.371,9.835z"/>
	<path fill="#FFFFFF" d="M49.621,16.143c0.001-1.889,0.004-3.777,0-5.666c-0.005-2.041,0.698-3.823,1.958-5.405
		c1.362-1.712,3.138-2.765,5.28-3.085c2.477-0.369,4.857-0.043,6.897,1.56c1.868,1.468,3.137,3.326,3.459,5.737
		c0.042,0.309,0.064,0.624,0.065,0.935c0.003,4.005,0.003,8.012,0.001,12.017c0,0.084,0.005,0.167-0.002,0.251
		c-0.046,0.493-0.198,0.645-0.714,0.662c-0.493,0.016-0.986,0.005-1.48,0.005c-0.817,0-1.635,0.003-2.454-0.002
		c-0.655-0.005-0.814-0.164-0.816-0.81c-0.003-1.105,0.001-2.212-0.002-3.318c-0.003-0.771-0.268-1.056-1.031-1.062
		c-1.502-0.011-3.007-0.013-4.509-0.002c-0.779,0.005-1.032,0.272-1.036,1.052c-0.005,1.106,0.002,2.214-0.005,3.32
		c-0.003,0.649-0.171,0.816-0.813,0.818c-1.335,0.004-2.671,0.004-4.005-0.002c-0.617-0.002-0.79-0.177-0.792-0.8
		C49.619,20.28,49.621,18.211,49.621,16.143z M58.52,12.277c0.793,0,1.587,0.01,2.381-0.004c0.61-0.01,0.889-0.309,0.912-0.922
		c0.014-0.339-0.009-0.673-0.073-1.003c-0.268-1.368-1.002-2.362-2.365-2.778c-1.244-0.377-2.323,0.008-3.232,0.884
		c-0.822,0.792-0.949,1.82-0.904,2.896c0.026,0.623,0.284,0.913,0.901,0.925C56.932,12.289,57.727,12.276,58.52,12.277z"/>
	<path fill="#FFFFFF" d="M47.504,15.34c0,2.251,0,4.501,0,6.751c0,0.096,0.004,0.192-0.002,0.286
		c-0.036,0.521-0.19,0.682-0.716,0.699c-0.48,0.018-0.963,0.004-1.445,0.004c-0.829,0-1.661,0.004-2.49-0.002
		c-0.658-0.003-0.804-0.159-0.821-0.804c-0.118-4.305-0.109-8.612-0.111-12.917c0-0.239-0.005-0.482-0.034-0.72
		C41.8,7.914,41.15,7.553,40.485,7.846c-0.213,0.093-0.397,0.228-0.567,0.38c-0.645,0.58-1.345,1.089-2.023,1.625
		c-0.608,0.482-0.976,0.469-1.576-0.021c-0.687-0.563-1.373-1.132-2.063-1.694c-0.12-0.097-0.248-0.191-0.384-0.263
		c-0.601-0.322-1.186-0.096-1.416,0.552c-0.134,0.377-0.163,0.776-0.163,1.174c-0.001,4.102-0.001,8.202-0.002,12.306
		c0,0.084,0,0.168,0,0.252c-0.002,0.795-0.126,0.924-0.916,0.924c-1.252,0-2.503,0.001-3.753,0
		c-0.712-0.002-0.876-0.164-0.878-0.867c-0.002-2.406-0.042-4.814,0.012-7.218c0.046-1.998,0.005-3.993,0.056-5.989
		c0.037-1.436,0.185-2.854,1.055-4.086c1.107-1.57,2.57-2.564,4.493-2.828c1.404-0.194,2.754-0.003,4.017,0.655
		c0.507,0.266,0.988,0.321,1.504,0.037c1.433-0.791,2.947-0.869,4.539-0.611c2.375,0.384,4.905,2.885,5.04,5.842
		c0.094,2.055,0.019,4.113,0.044,6.17C47.508,14.57,47.504,14.956,47.504,15.34z"/>
	<path fill="#F44336" d="M107.076,12.995c-0.04,0.944,0.074,2.148-0.061,3.347c-0.156,1.383-0.703,2.609-1.53,3.716
		c-1.112,1.491-2.516,2.599-4.294,3.198c-1.097,0.371-2.238,0.371-3.383,0.39c-2.006,0.037-3.693-0.751-5.219-1.954
		c-1.418-1.12-2.321-2.602-2.839-4.326c-0.196-0.658-0.351-1.321-0.351-2.014c0-1.768-0.084-3.541,0.02-5.303
		c0.164-2.776,1.361-5.047,3.68-6.654c0.772-0.533,1.584-0.998,2.496-1.262c0.324-0.094,0.643-0.196,0.982-0.213
		c1.105-0.054,2.215-0.098,3.314,0.011c1.502,0.146,2.818,0.823,3.959,1.763c1.175,0.969,2.134,2.138,2.684,3.603
		c0.313,0.838,0.535,1.69,0.539,2.59C107.078,10.837,107.076,11.79,107.076,12.995z M101.584,12.897
		c-0.035-0.868,0.025-1.72-0.059-2.573c-0.175-1.75-1.533-2.889-3.145-2.949c-2.005-0.075-3.307,1.418-3.42,3.255
		c-0.08,1.341-0.029,2.69-0.018,4.036c0.021,1.945,1.24,3.24,3.184,3.41c1.653,0.145,3.194-1.1,3.404-2.749
		C101.635,14.516,101.543,13.697,101.584,12.897z"/>
	<path fill="#F44336" d="M69.547,16.148c0-1.925-0.029-3.849,0.005-5.772c0.05-2.829,1.274-5.105,3.491-6.799
		c1.512-1.153,3.26-1.758,5.204-1.699c0.83,0.025,1.655,0.054,2.471,0.232c1.15,0.253,2.167,0.807,3.067,1.527
		c1.012,0.813,1.881,1.77,2.496,2.95c0.615,1.178,0.912,2.426,0.92,3.735c0.019,3.993,0.006,7.986,0.004,11.979
		c0,0.686-0.165,0.849-0.855,0.85c-1.249,0.002-2.5,0.002-3.75,0C81.885,23.149,81.74,23,81.74,22.275
		c-0.002-3.68-0.004-7.358,0-11.041c0-1.034-0.252-1.987-0.975-2.749c-0.888-0.938-1.975-1.298-3.24-0.905
		c-1.246,0.388-2.045,1.206-2.295,2.517c-0.078,0.405-0.068,0.813-0.068,1.222c-0.002,3.57-0.002,7.145-0.002,10.716
		c0,1.03-0.084,1.116-1.098,1.116c-1.215,0-2.43,0-3.645-0.002c-0.709-0.002-0.869-0.155-0.871-0.867c-0.005-2.045,0-4.092,0-6.137
		C69.545,16.148,69.545,16.148,69.547,16.148z"/>
	<path fill="#FFFFFF" d="M12.94,1.89c1.034,0,2.068,0,3.103,0.001c0.689,0.002,0.852,0.162,0.854,0.849
		c0.003,1.335,0.004,2.67,0,4.005c-0.001,0.709-0.136,0.843-0.841,0.845c-1.683,0.003-3.367,0.004-5.051,0.005
		c-1.554,0-2.938,0.444-4.035,1.59c-1.799,1.88-1.979,4.422-0.414,6.499c0.764,1.016,1.8,1.674,3.075,1.93
		c0.462,0.092,0.919,0.163,1.39,0.161c1.647-0.006,3.295-0.003,4.943-0.003c0.794,0,0.936,0.144,0.936,0.953
		c0,1.311,0,2.619,0,3.932c-0.002,0.715-0.173,0.848-0.881,0.838c-1.828-0.026-3.656-0.039-5.484-0.033
		c-2.503,0.014-4.749-0.799-6.664-2.337c-2.43-1.952-3.787-4.533-3.986-7.693c-0.166-2.632,0.451-5.04,2.013-7.158
		C3.542,4.036,5.755,2.645,8.488,2.09c0.723-0.146,1.439-0.234,2.179-0.206C11.423,1.912,12.182,1.89,12.94,1.89z"/>
	<path fill="#FFFFFF" d="M19.078,12.69c0-3.249,0-6.497,0-9.744c0-0.785,0.128-0.91,0.928-0.911c1.25-0.001,2.502-0.003,3.753,0.001
		c0.651,0.003,0.797,0.164,0.809,0.816c0.102,6.495,0.042,12.989,0.058,19.484c0.001,0.968-0.087,1.058-1.036,1.058
		c-1.179,0.001-2.358,0.001-3.537,0c-0.882-0.002-0.975-0.092-0.975-0.961C19.077,19.185,19.078,15.938,19.078,12.69z"/>
</g>
</svg>
